OpenSim_Sub02_CSStiffKnee_RCS.mot
version=1
nRows=68
nColumns=11
inDegrees=no
endheader
time	Top_Thigh	Med_Thigh	Bot_Thigh	Top_Shank	2nd_Top_Shank	2nd_Bot_Shank	Bot_Shank	BNOx	BNOy	BNOZ
51.68000000	1278.94556682	1268.91190274	1165.54602886	1120.85886490	1212.56638628	1000.77933398	993.97659614	257.27358460	-78.42787058	-34.27998090
51.69000000	1280.32473081	1271.18885908	1168.57791622	1120.82842930	1212.29850174	1001.04511028	993.82627918	298.34083022	-77.81355247	-64.35653029
51.70000000	1282.42163277	1273.31453891	1174.93354403	1120.54210101	1211.75652411	1000.79463404	993.50191513	333.62554153	-77.02438554	-90.29187252
51.71000000	1285.32996853	1275.17002209	1185.22295806	1119.92051992	1210.89886364	999.87332702	992.92951170	360.78389127	-76.09105789	-110.38901365
51.72000000	1289.06332379	1276.67146149	1199.42999409	1118.92634473	1209.71720130	998.20783422	992.07134971	378.34170190	-75.04951133	-123.56574520
51.73000000	1293.39724781	1277.83922473	1215.67778989	1117.64708738	1208.30207748	995.96614441	990.99749073	387.40884170	-73.95129838	-130.56661000
51.74000000	1298.06328056	1278.71294710	1231.74546888	1116.19334331	1206.76231017	993.36086713	989.79792331	389.57292929	-72.85085776	-132.47388906
51.75000000	1302.79296205	1279.33226391	1245.41215446	1114.67570789	1205.20671735	990.60461190	988.56263598	386.42158327	-71.80262815	-130.36986341
51.76000000	1307.31783225	1279.73681045	1254.45697001	1113.20477655	1203.74411700	987.90998825	987.38161730	379.54242224	-70.86104827	-125.33681406
51.77000000	1311.36943116	1279.96622203	1256.65903894	1111.89114468	1202.48332711	985.48960570	986.34485582	370.52306479	-70.08055681	-118.45702202
51.78000000	1314.67929877	1280.06013395	1249.79748466	1110.84540770	1201.53316566	983.55607380	985.54234008	360.95112954	-69.51559248	-110.81276832
51.79000000	1316.97897505	1280.05818150	1231.65143054	1110.17816100	1201.00245063	982.32200205	985.06405862	352.41423507	-69.22059397	-103.48633398
51.80000000	1318	1280	1200	1110	1201	982	985	346.50000000	-69.25000000	-97.56000000
51.81000000	1317.57393614	1279.92102438	1153.71040967	1110.38497699	1201.59717075	982.73128758	985.40979748	344.34185446	-69.63723392	-93.89431483
51.82000000	1315.93243613	1279.83988816	1096.00224913	1111.26097185	1202.71547582	984.37152642	986.23166324	345.25647473	-70.33165774	-92.46289654
51.83000000	1313.40717515	1279.77102450	1031.18320122	1112.51932135	1204.23896713	986.70498854	987.37345416	348.10634866	-71.26161814	-93.01763065
51.84000000	1310.32982841	1279.72886655	963.56094875	1114.05136226	1206.05169660	989.51594597	988.74302713	351.75396405	-72.35546177	-95.31040265
51.85000000	1307.03207110	1279.72784749	897.44317455	1115.74843136	1208.03771617	992.58867074	990.24823903	355.06180874	-73.54153530	-99.09309805
51.86000000	1303.84557840	1279.78240045	837.13756144	1117.50186542	1210.08107775	995.70743489	991.79694677	356.89237055	-74.74818542	-104.11760234
51.87000000	1301.10202552	1279.90695861	786.95179225	1119.20300121	1212.06583328	998.65651044	993.29700722	356.10813732	-75.90375877	-110.13580103
51.88000000	1299.12409109	1280.11526041	751.06936564	1120.74557197	1213.87862883	1001.22544379	994.65851998	351.60435954	-76.93832700	-116.90045721
51.89000000	1298.02753332	1280.40506599	730.81754476	1122.07842943	1215.46577601	1003.32509165	995.84316662	343.02982935	-77.82163581	-124.18451844
51.90000000	1297.72118995	1280.75815715	724.66735723	1123.20554390	1216.83325194	1004.98762107	996.86421068	330.78688052	-78.56310497	-131.78111677
51.91000000	1298.10490218	1281.15562100	730.96564649	1124.13328209	1217.98962792	1006.25047344	997.73715843	315.31060950	-79.17387924	-139.48426181
51.92000000	1299.07851120	1281.57854464	748.05925601	1124.86801076	1218.94347523	1007.15109017	998.47751611	297.03611274	-79.66510335	-147.08796320
51.93000000	1300.54185821	1282.00801518	774.29502925	1125.41609663	1219.70336515	1007.72691265	999.10078998	276.39848668	-80.04792204	-154.38623056
51.94000000	1302.39478441	1282.42511972	808.01980966	1125.78390645	1220.27786896	1008.01538230	999.62248629	253.83282778	-80.33348007	-161.17307352
51.95000000	1304.53713101	1282.81094536	847.58044070	1125.97780696	1220.67555796	1008.05394050	1000.05811129	229.77423247	-80.53292216	-167.24250170
51.96000000	1306.86873920	1283.14657920	891.32376584	1126.00416488	1220.90500343	1007.88002866	1000.42317124	204.65779721	-80.65739307	-172.38852474
51.97000000	1309.28945018	1283.41310836	937.59662852	1125.86934696	1220.97477664	1007.53108819	1000.73317238	178.91861845	-80.71803753	-176.40515227
51.98000000	1311.69910514	1283.59161992	984.74587222	1125.57971994	1220.89344890	1007.04456048	1001.00362096	152.99179263	-80.72600028	-179.08639389
51.99000000	1313.99754529	1283.66320099	1031.11834038	1125.14165055	1220.66959147	1006.45788693	1001.25002325	127.31241620	-80.69242607	-180.22625926
52.00000000	1316.08461183	1283.60893869	1075.06087646	1124.56150554	1220.31177564	1005.80850895	1001.48788549	102.31558562	-80.62845965	-179.61875798
52.01000000	1317.86014595	1283.40992010	1114.92032393	1123.84565163	1219.82857271	1005.13386793	1001.73271392	78.43639732	-80.54524574	-177.05789969
52.02000000	1319.22398886	1283.04723234	1149.04352625	1123.00045556	1219.22855395	1004.47140529	1002.00001482	56.10994775	-80.45392910	-172.33769402
52.03000000	1320.07598174	1282.50196250	1175.77732686	1122.03228409	1218.52029065	1003.85856241	1002.30529442	35.77133337	-80.36565447	-165.25215059
52.04000000	1320.31596581	1281.75519769	1193.46856923	1120.94750393	1217.71235409	1003.33278070	1002.66405898	17.85565061	-80.29156658	-155.59527903
52.05000000	1319.84405649	1280.78809241	1200.46792124	1119.75249958	1216.81332371	1002.93141579	1003.09175840	2.79706841	-80.24278940	-143.16192510
52.06000000	1318.61850713	1279.59608915	1195.93682817	1118.45741956	1215.83350649	1002.67363805	1003.59189584	-9.16688197	-80.22604070	-127.92419386
52.07000000	1316.72728441	1278.20650878	1180.84568672	1117.08081040	1214.78706380	1002.53804423	1004.14131974	-18.23739375	-80.23820743	-110.24967934
52.08000000	1314.27590609	1276.65098553	1156.40965660	1115.64235495	1213.68867857	1002.49774118	1004.71327195	-24.67502243	-80.27484639	-90.55948782
52.09000000	1311.36988991	1274.96115364	1123.84389752	1114.16173603	1212.55303368	1002.52583574	1005.28099435	-28.74032356	-80.33151438	-69.27472555
52.10000000	1308.11475363	1273.16864734	1084.36356918	1112.65863651	1211.39481204	1002.59543477	1005.81772880	-30.69385264	-80.40376819	-46.81649881
52.11000000	1304.61601500	1271.30510086	1039.18383128	1111.15273921	1210.22869655	1002.67964512	1006.29671717	-30.79616522	-80.48716462	-23.60591386
52.12000000	1300.97919177	1269.40214842	989.51984353	1109.66372699	1209.06937012	1002.75157364	1006.69120133	-29.30781680	-80.57726046	-0.06407698
52.13000000	1297.30980170	1267.49142427	936.58676562	1108.21128268	1207.93151566	1002.78432719	1006.97442313	-26.48936291	-80.66961251	23.38790556
52.14000000	1293.71336254	1265.60456263	881.59975727	1106.81508913	1206.82981606	1002.75101260	1007.11962446	-22.60135908	-80.75977756	46.32892750
52.15000000	1290.29539204	1263.77319773	825.77397817	1105.49482918	1205.77895423	1002.62473675	1007.10004717	-17.90436084	-80.84331241	68.33788257
52.16000000	1287.16140796	1262.02896382	770.32458803	1104.27018568	1204.79361307	1002.37860647	1006.88893313	-12.65892369	-80.91577384	88.99366450
52.17000000	1284.41692804	1260.40349510	716.46674655	1103.16084146	1203.88847549	1001.98572861	1006.45952420	-7.12560317	-80.97271867	107.87516701
52.18000000	1282.16747004	1258.92842583	665.41561344	1102.18647937	1203.07822439	1001.41921004	1005.78506226	-1.56495481	-81.00970367	124.56128385
52.19000000	1280.51855170	1257.63539023	618.38634839	1101.36678224	1202.37754268	1000.65215760	1004.83878917	3.76246588	-81.02228566	138.63090874
52.20000000	1279.57569080	1256.55602253	576.59411112	1100.72143293	1201.80111325	999.65767814	1003.59394680	8.59610338	-81.00602141	149.66293541
52.21000000	1279.44440506	1255.72195697	541.25406133	1100.27011428	1201.36361902	998.40887851	1002.02377701	12.67540215	-80.95646772	157.23625760
52.22000000	1280.23021226	1255.16482777	513.58135871	1100.03250913	1201.07974288	996.87886557	1000.10152167	15.73980668	-80.86918140	160.92976903
52.23000000	1282.00728226	1254.89954093	495.01744115	1100.02079358	1200.96192767	995.04895575	997.81035838	17.54944216	-80.73899356	160.37995001
52.24000000	1284.12878385	1254.55625311	492.20814449	1100.07448884	1200.97109468	993.08928591	995.36198673	18.34009030	-80.54404481	156.54777207
52.25000000	1285.24434441	1253.39067922	516.81738827	1099.86494267	1201.01765798	991.35451632	993.19132882	18.81541398	-80.24627961	151.69341210
52.26000000	1284.65098833	1251.04251383	573.49240182	1099.23021253	1201.04922400	990.04047129	991.53722688	19.39748968	-79.82613550	147.15164486
52.27000000	1282.52745362	1247.67198523	657.47154243	1098.23466922	1201.06462329	989.12597702	990.37090150	20.11573826	-79.28901583	142.98030805
52.28000000	1279.11140470	1243.47410986	763.36435662	1096.95780845	1201.06610978	988.57535736	989.64568768	20.97333868	-78.64199247	139.15189950
52.29000000	1274.64050600	1238.64390415	885.78039089	1095.47912591	1201.05593743	988.35293616	989.31492044	21.97346997	-77.89213729	135.63891707
52.30000000	1269.35242194	1233.37638454	1019.32919178	1093.87811730	1201.03636017	988.42303726	989.33193478	23.11931110	-77.04652214	132.41385860
52.31000000	1263.48481693	1227.86656747	1158.62030579	1092.23427832	1201.00963193	988.74998451	989.65006569	24.41404108	-76.11221890	129.44922192
52.32000000	1257.27535542	1222.30946938	1298.26327945	1090.62710467	1200.97800667	989.29810177	990.22264819	25.86083890	-75.09629943	126.71750489
52.33000000	1250.96170181	1216.90010670	1432.86765927	1089.13609205	1200.94373831	990.03171289	991.00301726	27.46288356	-74.00583559	124.19120534
52.34000000	1244.78152052	1211.83349587	1557.04299177	1087.84073616	1200.90908081	990.91514171	991.94450793	29.22335405	-72.84789925	121.84282111
52.35000000	1238.97247599	1207.30465333	1665.39882347	1086.82053270	1200.87628810	991.91271208	993.00045519	31.14542936	-71.62956228	119.64485006
